<?xml version="1.0" encoding="UTF-8" standalone="no"?>
<!-- This is a Stata 16.1 generated SVG file (http://www.stata.com) -->

<svg version="1.1" width="5.50in" height="4.00in" viewBox="0 0 3960 2880" xmlns="http://www.w3.org/2000/svg" xmlns:xlink="http://www.w3.org/1999/xlink">
	<desc>Stata Graph - Graph</desc>
	<rect x="0" y="0" width="3960" height="2880" style="fill:#FFFFFF;stroke:none"/>
	<rect x="0.00" y="0.00" width="3959.88" height="2880.00" style="fill:#FFFFFF"/>
	<rect x="2.88" y="2.88" width="3954.12" height="2874.24" style="fill:none;stroke:#FFFFFF;stroke-width:5.76"/>
	<rect x="393.68" y="103.74" width="3462.46" height="1847.08" style="fill:none;stroke:#000000;stroke-width:5.76"/>
	<rect x="978.24" y="499.35" width="456.89" height="1454.36" style="fill:#FF7F00;fill-opacity:0.40"/>
	<rect x="982.56" y="503.67" width="448.25" height="1445.72" style="fill:none;stroke:#D7D29E;stroke-width:8.64"/>
	<rect x="1435.13" y="681.14" width="456.88" height="1272.56" style="fill:#FF7F00;fill-opacity:0.40"/>
	<rect x="1439.45" y="685.46" width="448.25" height="1263.92" style="fill:none;stroke:#D7D29E;stroke-width:8.64"/>
	<rect x="1892.01" y="499.35" width="456.88" height="1454.36" style="fill:#FF7F00;fill-opacity:0.40"/>
	<rect x="1896.33" y="503.67" width="448.25" height="1445.72" style="fill:none;stroke:#D7D29E;stroke-width:8.64"/>
	<rect x="2348.90" y="1044.73" width="456.89" height="908.97" style="fill:#FF7F00;fill-opacity:0.40"/>
	<rect x="2353.22" y="1049.05" width="448.25" height="900.33" style="fill:none;stroke:#D7D29E;stroke-width:8.64"/>
	<rect x="2805.78" y="1590.11" width="456.88" height="363.59" style="fill:#FF7F00;fill-opacity:0.40"/>
	<rect x="2810.10" y="1594.43" width="448.25" height="354.95" style="fill:none;stroke:#D7D29E;stroke-width:8.64"/>
	<path d=" M978.24 1492.97 L985.79 1482.57 L993.47 1472.05 L1001.14 1461.41 L1008.81 1450.64 L1016.36 1439.63 L1024.03 1428.61 L1031.70 1417.35 L1039.38 1405.97 L1046.92 1394.58 L1054.60 1382.95 L1062.27 1371.19 L1069.94 1359.19 L1077.49 1347.18 L1085.16 1335.06 L1092.84 1322.81 L1100.51 1310.43 L1108.06 1297.81 L1115.73 1285.18 L1123.40 1272.44 L1130.95 1259.57 L1138.62 1246.57 L1146.30 1233.45 L1153.97 1220.21 L1161.52 1206.97 L1169.19 1193.48 L1176.86 1179.99 L1184.54 1166.38 L1192.08 1152.77 L1199.76 1138.91 L1207.43 1125.05 L1215.10 1111.19 L1222.65 1097.08 L1230.32 1082.97 L1237.99 1068.86 L1245.67 1054.63 L1253.22 1040.40 L1260.89 1026.04 L1268.56 1011.69 L1276.23 997.21 L1283.78 982.73 L1291.45 968.25 L1299.13 953.65 L1306.68 939.04 L1314.35 924.44 L1322.02 909.84 L1329.69 895.24 L1337.24 880.63 L1344.91 866.03 L1352.59 851.43 L1360.26 836.82 L1367.81 822.22 L1375.48 807.62 L1383.15 793.14 L1390.83 778.54 L1398.38 764.06 L1406.05 749.70 L1413.72 735.35 L1421.39 720.99 L1428.94 706.76 L1436.61 692.53 L1444.29 678.42 L1451.84 664.43 L1459.51 650.45 L1467.18 636.59 L1474.85 622.85 L1482.40 609.24 L1490.07 595.63 L1497.75 582.26 L1505.42 568.90 L1512.97 555.78 L1520.64 542.78 L1528.31 529.91 L1535.98 517.17 L1543.53 504.54 L1551.21 492.17 L1558.88 479.92 L1566.55 467.79 L1574.10 455.91 L1581.77 444.15 L1589.44 432.64 L1596.99 421.38 L1604.67 410.24 L1612.34 399.35 L1620.01 388.59 L1627.56 378.07 L1635.23 367.80 L1642.90 357.77 L1650.58 348.00 L1658.13 338.47 L1665.80 329.06 L1673.47 320.03 L1681.14 311.24 L1688.69 302.70 L1696.37 294.41 L1704.04 286.37 L1711.71 278.57 L1719.26 271.14 L1726.93 263.97 L1734.60 257.04 L1742.15 250.35 L1749.83 244.04 L1757.50 237.98 L1765.17 232.29 L1772.72 226.84 L1780.39 221.64 L1788.06 216.82 L1795.74 212.24 L1803.29 208.03 L1810.96 204.19 L1818.63 200.61 L1826.30 197.39 L1833.85 194.42 L1841.52 191.82 L1849.20 189.47 L1856.87 187.49 L1864.42 185.88 L1872.09 184.52 L1879.76 183.53 L1887.31 182.91 L1894.98 182.54 L1902.66 182.54 L1910.33 182.78 L1917.88 183.40 L1925.55 184.39 L1933.22 185.75 L1940.89 187.36 L1948.44 189.34 L1956.12 191.57 L1963.79 194.17 L1971.46 197.14 L1979.01 200.36 L1986.68 203.95 L1994.36 207.78 L2002.03 211.99 L2009.58 216.45 L2017.25 221.27 L2024.92 226.35 L2032.59 231.79 L2040.14 237.61 L2047.82 243.55 L2055.49 249.86 L2063.04 256.54 L2070.71 263.35 L2078.38 270.53 L2086.05 278.07 L2093.60 285.75 L2101.28 293.79 L2108.95 302.08 L2116.62 310.62 L2124.17 319.41 L2131.84 328.44 L2139.51 337.72 L2147.19 347.25 L2154.74 357.03 L2162.41 367.05 L2170.08 377.33 L2177.75 387.84 L2185.30 398.49 L2192.97 409.38 L2200.65 420.52 L2208.20 431.78 L2215.87 443.29 L2223.54 455.04 L2231.21 466.92 L2238.76 479.05 L2246.43 491.18 L2254.11 503.68 L2261.78 516.18 L2269.33 528.92 L2277.00 541.79 L2284.67 554.79 L2292.34 567.91 L2299.89 581.27 L2307.57 594.64 L2315.24 608.13 L2322.91 621.86 L2330.46 635.60 L2338.13 649.46 L2345.80 663.32 L2353.35 677.43 L2361.03 691.54 L2368.70 705.64 L2376.37 719.88 L2383.92 734.23 L2391.59 748.59 L2399.26 763.07 L2406.94 777.55 L2414.49 792.02 L2422.16 806.50 L2429.83 821.11 L2437.50 835.71 L2445.05 850.31 L2452.72 864.92 L2460.40 879.52 L2468.07 894.25 L2475.62 908.85 L2483.29 923.45 L2490.96 938.05 L2498.51 952.53 L2506.18 967.14 L2513.86 981.62 L2521.53 996.09 L2529.08 1010.57 L2536.75 1024.93 L2544.42 1039.28 L2552.10 1053.64 L2559.64 1067.87 L2567.32 1081.98 L2574.99 1096.09 L2582.66 1110.07 L2590.21 1124.06 L2597.88 1137.92 L2605.56 1151.65 L2613.23 1165.39 L2620.78 1179.00 L2628.45 1192.49 L2636.12 1205.98 L2643.80 1219.22 L2651.34 1232.46 L2659.02 1245.58 L2666.69 1258.58 L2674.24 1271.45 L2681.91 1284.32 L2689.58 1296.94 L2697.26 1309.44 L2704.80 1321.82 L2712.48 1334.19 L2720.15 1346.32 L2727.82 1358.32 L2735.37 1370.20 L2743.04 1382.08 L2750.72 1393.72 L2758.39 1405.23 L2765.94 1416.49 L2773.61 1427.75 L2781.28 1438.89 L2788.95 1449.78 L2796.50 1460.67 L2804.18 1471.31 L2811.85 1481.83 L2819.40 1492.22 L2827.07 1502.37 L2834.74 1512.52 L2842.41 1522.42 L2849.96 1532.20 L2857.64 1541.85 L2865.31 1551.38 L2872.98 1560.78 L2880.53 1569.94 L2888.20 1578.98 L2895.87 1587.89 L2903.55 1596.67 L2911.09 1605.34 L2918.77 1613.87 L2926.44 1622.17 L2934.11 1630.33 L2941.66 1638.38 L2949.33 1646.30 L2957.01 1654.09 L2964.55 1661.64 L2972.23 1669.19 L2979.90 1676.49 L2987.57 1683.67 L2995.12 1690.73 L3002.79 1697.66 L3010.47 1704.46 L3018.14 1711.14 L3025.69 1717.70 L3033.36 1724.02 L3041.03 1730.33 L3048.70 1736.39 L3056.25 1742.45 L3063.93 1748.27 L3071.60 1754.09 L3079.27 1759.66 L3086.82 1765.10 L3094.49 1770.55 L3102.16 1775.74 L3109.71 1780.94 L3117.39 1785.89 L3125.06 1790.84 L3132.73 1795.67 L3140.28 1800.25 L3147.95 1804.83 L3155.63 1809.28 L3163.30 1813.61 L3170.85 1817.94 L3178.52 1822.03 L3186.19 1826.11 L3193.86 1830.07 L3201.41 1833.91 L3209.09 1837.62 L3216.76 1841.21 L3224.43 1844.80 L3231.98 1848.26 L3239.65 1851.61 L3247.32 1854.95 L3254.87 1858.04 L3262.55 1861.13" stroke-linejoin="round" style="fill:none;stroke:#00B000;stroke-width:8.64"/>
	<rect x="543.26" y="1272.68" width="609.84" height="681.02" style="fill:#0080FF;fill-opacity:0.50"/>
	<rect x="547.58" y="1277.00" width="601.20" height="672.38" style="fill:none;stroke:#D7D29E;stroke-width:8.64"/>
	<rect x="1153.10" y="864.17" width="609.84" height="1089.53" style="fill:#0080FF;fill-opacity:0.50"/>
	<rect x="1157.42" y="868.49" width="601.20" height="1080.89" style="fill:none;stroke:#D7D29E;stroke-width:8.64"/>
	<rect x="1762.94" y="455.54" width="609.84" height="1498.16" style="fill:#0080FF;fill-opacity:0.50"/>
	<rect x="1767.26" y="459.86" width="601.20" height="1489.52" style="fill:none;stroke:#D7D29E;stroke-width:8.64"/>
	<rect x="2372.78" y="1272.68" width="609.84" height="681.02" style="fill:#0080FF;fill-opacity:0.50"/>
	<rect x="2377.10" y="1277.00" width="601.20" height="672.38" style="fill:none;stroke:#D7D29E;stroke-width:8.64"/>
	<rect x="2982.62" y="1817.45" width="609.72" height="136.25" style="fill:#0080FF;fill-opacity:0.50"/>
	<rect x="2986.94" y="1821.77" width="601.08" height="127.61" style="fill:none;stroke:#D7D29E;stroke-width:8.64"/>
	<line x1="390.80" y1="1953.70" x2="390.80" y2="100.86" style="stroke:#000000;stroke-width:5.76"/>
	<line x1="390.80" y1="1953.70" x2="350.83" y2="1953.70" style="stroke:#000000;stroke-width:5.76"/>
	<text x="300.72" y="1953.70" style="font-family:'Helvetica';font-size:99.99px;fill:#000000" transform="rotate(-90 300.72,1953.70)" text-anchor="middle">0</text>
	<line x1="390.80" y1="1357.21" x2="350.83" y2="1357.21" style="stroke:#000000;stroke-width:5.76"/>
	<text x="300.72" y="1357.21" style="font-family:'Helvetica';font-size:99.99px;fill:#000000" transform="rotate(-90 300.72,1357.21)" text-anchor="middle">.01</text>
	<line x1="390.80" y1="760.72" x2="350.83" y2="760.72" style="stroke:#000000;stroke-width:5.76"/>
	<text x="300.72" y="760.72" style="font-family:'Helvetica';font-size:99.99px;fill:#000000" transform="rotate(-90 300.72,760.72)" text-anchor="middle">.02</text>
	<line x1="390.80" y1="164.22" x2="350.83" y2="164.22" style="stroke:#000000;stroke-width:5.76"/>
	<text x="300.72" y="164.22" style="font-family:'Helvetica';font-size:99.99px;fill:#000000" transform="rotate(-90 300.72,164.22)" text-anchor="middle">.03</text>
	<text x="190.71" y="1027.28" style="font-family:'Helvetica';font-size:99.99px;fill:#000000" transform="rotate(-90 190.71,1027.28)" text-anchor="middle">Density</text>
	<line x1="390.80" y1="1953.70" x2="3859.02" y2="1953.70" style="stroke:#000000;stroke-width:5.76"/>
	<line x1="454.16" y1="1953.70" x2="454.16" y2="1993.67" style="stroke:#000000;stroke-width:5.76"/>
	<text x="454.16" y="2083.66" style="font-family:'Helvetica';font-size:99.99px;fill:#000000" text-anchor="middle">20</text>
	<line x1="1289.47" y1="1953.70" x2="1289.47" y2="1993.67" style="stroke:#000000;stroke-width:5.76"/>
	<text x="1289.47" y="2083.66" style="font-family:'Helvetica';font-size:99.99px;fill:#000000" text-anchor="middle">40</text>
	<line x1="2124.91" y1="1953.70" x2="2124.91" y2="1993.67" style="stroke:#000000;stroke-width:5.76"/>
	<text x="2124.91" y="2083.66" style="font-family:'Helvetica';font-size:99.99px;fill:#000000" text-anchor="middle">60</text>
	<line x1="2960.35" y1="1953.70" x2="2960.35" y2="1993.67" style="stroke:#000000;stroke-width:5.76"/>
	<text x="2960.35" y="2083.66" style="font-family:'Helvetica';font-size:99.99px;fill:#000000" text-anchor="middle">80</text>
	<line x1="3795.66" y1="1953.70" x2="3795.66" y2="1993.67" style="stroke:#000000;stroke-width:5.76"/>
	<text x="3795.66" y="2083.66" style="font-family:'Helvetica';font-size:99.99px;fill:#000000" text-anchor="middle">100</text>
	<text x="2124.91" y="2193.67" style="font-family:'Helvetica';font-size:99.99px;fill:#000000" text-anchor="middle">age</text>
	<rect x="1243.32" y="2278.31" width="1763.19" height="466.30" style="fill:#FFFFFF"/>
	<rect x="1246.20" y="2281.19" width="1757.43" height="460.54" style="fill:none;stroke:#000000;stroke-width:5.76"/>
	<rect x="1286.51" y="2321.50" width="374.34" height="99.99" style="fill:#FF7F00;fill-opacity:0.40"/>
	<rect x="1290.82" y="2325.82" width="365.70" height="91.35" style="fill:none;stroke:#D7D29E;stroke-width:8.64"/>
	<line x1="1286.51" y1="2511.46" x2="1660.85" y2="2511.46" style="stroke:#00B000;stroke-width:8.64"/>
	<rect x="1286.51" y="2601.43" width="374.34" height="99.99" style="fill:#0080FF;fill-opacity:0.50"/>
	<rect x="1290.82" y="2605.75" width="365.70" height="91.35" style="fill:none;stroke:#D7D29E;stroke-width:8.64"/>
	<text x="1720.87" y="2406.52" style="font-family:'Helvetica';font-size:99.99px;fill:#000000">Sampled from Normal</text>
	<text x="1720.87" y="2546.49" style="font-family:'Helvetica';font-size:99.99px;fill:#000000">Theoretical Normal</text>
	<text x="1720.87" y="2686.46" style="font-family:'Helvetica';font-size:99.99px;fill:#000000">Sampled from t-distribution</text>
</svg>
